<svg xmlns="http://www.w3.org/2000/svg" xmlns:xlink="http://www.w3.org/1999/xlink" width="100" zoomAndPan="magnify" viewBox="0 0 75 56.249996" height="75" preserveAspectRatio="xMidYMid meet" version="1.0"><defs><g/><clipPath id="5e92d33116"><path d="M 46 14 L 74.503906 14 L 74.503906 47 L 46 47 Z M 46 14 " clip-rule="nonzero"/></clipPath></defs><g fill="#ffffff" fill-opacity="1"><g transform="translate(0.941582, 46.667433)"><g><path d="M 41.4375 -0.453125 L 42.171875 -0.453125 L 42.171875 0 L 32.1875 0 L 32.1875 -0.421875 L 32.875 -0.421875 C 33.394531 -0.421875 33.835938 -0.625 34.203125 -1.03125 C 34.578125 -1.445312 34.734375 -1.898438 34.671875 -2.390625 L 32.59375 -25.5625 L 22.9375 -4.046875 C 22.070312 -2.179688 21.546875 -0.617188 21.359375 0.640625 L 20.90625 0.640625 L 9.125 -24.90625 L 7.140625 -2.390625 C 7.078125 -1.898438 7.226562 -1.445312 7.59375 -1.03125 C 7.96875 -0.625 8.398438 -0.421875 8.890625 -0.421875 L 9.625 -0.421875 L 9.625 0 L 0.6875 0 L 0.6875 -0.453125 L 1.421875 -0.453125 C 2.285156 -0.453125 3.03125 -0.710938 3.65625 -1.234375 C 4.289062 -1.765625 4.664062 -2.472656 4.78125 -3.359375 L 8.25 -32.875 L 8.703125 -32.875 L 21.546875 -5.109375 L 34.125 -32.875 L 34.53125 -32.875 L 38.078125 -3.359375 C 38.234375 -2.128906 38.847656 -1.269531 39.921875 -0.78125 C 40.378906 -0.5625 40.882812 -0.453125 41.4375 -0.453125 Z M 41.4375 -0.453125 "/></g></g></g><g clip-path="url(#5e92d33116)"><g fill="#ffffff" fill-opacity="1"><g transform="translate(43.805335, 46.667433)"><g><path d="M 12.25 -0.453125 L 12.84375 -0.453125 L 12.84375 0 L 2.765625 0 L 2.765625 -0.453125 L 3.359375 -0.453125 C 4.160156 -0.453125 4.84375 -0.738281 5.40625 -1.3125 C 5.976562 -1.882812 6.28125 -2.566406 6.3125 -3.359375 L 6.3125 -28.921875 C 6.28125 -29.710938 5.976562 -30.382812 5.40625 -30.9375 C 4.84375 -31.488281 4.160156 -31.765625 3.359375 -31.765625 L 2.765625 -31.765625 L 2.765625 -32.234375 L 12.84375 -32.234375 L 12.84375 -31.765625 L 12.25 -31.765625 C 11.445312 -31.765625 10.757812 -31.488281 10.1875 -30.9375 C 9.625 -30.382812 9.328125 -29.710938 9.296875 -28.921875 L 9.296875 -3.359375 C 9.296875 -2.566406 9.585938 -1.882812 10.171875 -1.3125 C 10.753906 -0.738281 11.445312 -0.453125 12.25 -0.453125 Z M 30.765625 0 L 28.78125 0 C 25.644531 0 23.34375 -0.875 21.875 -2.625 L 10.78125 -16.03125 L 21.640625 -29.65625 C 21.890625 -29.957031 22.015625 -30.226562 22.015625 -30.46875 C 22.015625 -30.71875 21.96875 -30.9375 21.875 -31.125 C 21.625 -31.582031 21.175781 -31.8125 20.53125 -31.8125 L 20.078125 -31.8125 L 20.078125 -32.234375 L 29.796875 -32.234375 L 29.796875 -31.8125 L 29.609375 -31.8125 C 27.578125 -31.8125 25.921875 -31.09375 24.640625 -29.65625 L 13.8125 -17.125 L 26.390625 -2.34375 C 27.617188 -1.113281 29.078125 -0.484375 30.765625 -0.453125 Z M 30.765625 0 "/></g></g></g></g></svg>