<svg xmlns="http://www.w3.org/2000/svg" xmlns:xlink="http://www.w3.org/1999/xlink" width="100" zoomAndPan="magnify" viewBox="0 0 75 56.249996" height="75" preserveAspectRatio="xMidYMid meet" version="1.0"><defs><g/><clipPath id="28ef6c3a27"><path d="M 17.613281 7.828125 L 20.472656 7.828125 L 20.472656 42.875 L 17.613281 42.875 Z M 17.613281 7.828125 " clip-rule="nonzero"/></clipPath></defs><g fill="#ffffff" fill-opacity="1"><g transform="translate(12.553653, 51.64938)"><g><path d="M 1.542969 -51.371094 L 1.542969 -50.855469 C 5.957031 -50.855469 6.265625 -47.210938 6.265625 -37.089844 L 6.265625 -14.28125 C 6.265625 -4.160156 5.957031 -0.515625 1.542969 -0.515625 L 1.542969 0 L 15.410156 0 L 15.410156 -0.515625 C 10.992188 -0.515625 6.78125 -4.210938 6.78125 -19.160156 L 6.78125 -25.683594 L 6.832031 -47.722656 C 14.640625 -30.976562 19.265625 -21.011719 27.328125 -3.75 L 27.792969 -3.75 C 34.109375 -20.703125 39.296875 -34.828125 44.847656 -49.675781 L 44.847656 -14.28125 C 44.847656 -4.160156 44.539062 -0.515625 40.121094 -0.515625 L 40.121094 0 L 53.988281 0 L 53.988281 -0.515625 C 49.570312 -0.515625 49.265625 -4.160156 49.265625 -14.28125 L 49.265625 -37.089844 C 49.265625 -47.210938 49.570312 -50.855469 53.988281 -50.855469 L 53.988281 -51.371094 L 44.949219 -51.371094 L 29.539062 -9.964844 L 9.8125 -51.371094 Z M 1.542969 -51.371094 "/></g></g></g><g clip-path="url(#28ef6c3a27)"><path fill="#ffffff" d="M 20.472656 7.828125 L 20.472656 42.875 L 17.613281 42.875 L 17.613281 7.828125 Z M 20.472656 7.828125 " fill-opacity="1" fill-rule="nonzero"/></g><g fill="#ffffff" fill-opacity="1"><g transform="translate(25.202092, 39.580949)"><g><path d="M 3.738281 -11.777344 C 3.71875 -11.777344 3.523438 -11.371094 3.429688 -11.058594 C 3.3125 -10.710938 3.117188 -10.441406 2.808594 -10.265625 C 2.441406 -10.015625 1.644531 -9.742188 1.125 -9.664062 C 1.046875 -9.664062 0.949219 -9.625 0.890625 -9.625 C 0.464844 -9.472656 -1.21875 -9.394531 -2.109375 -9.492188 C -2.441406 -9.53125 -3.253906 -9.664062 -3.640625 -9.742188 L -3.988281 -9.820312 L -4.28125 -9.878906 L -4.417969 -9.917969 L -5.09375 -10.089844 L -6.179688 -10.402344 L -6.683594 -10.535156 C -6.777344 -10.554688 -7.320312 -10.730469 -7.746094 -10.886719 L -7.921875 -10.945312 C -7.941406 -10.945312 -8.039062 -10.980469 -8.152344 -11.058594 L -8.851562 -11.445312 C -8.910156 -11.464844 -8.929688 -11.503906 -8.96875 -11.523438 L -9.027344 -11.621094 C -9.082031 -11.699219 -9.101562 -11.777344 -9.140625 -11.875 L -9.277344 -12.261719 L -9.585938 -13.113281 L -9.878906 -13.945312 L -9.976562 -14.199219 C -10.070312 -14.429688 -10.167969 -14.664062 -10.226562 -14.777344 C -10.246094 -14.835938 -10.460938 -15.28125 -10.574219 -15.515625 C -10.886719 -16.09375 -11.039062 -16.328125 -11.523438 -17.042969 C -12.066406 -17.878906 -12.609375 -18.652344 -12.6875 -18.710938 L -12.804688 -18.867188 C -12.839844 -18.941406 -12.898438 -19.019531 -12.9375 -19.039062 L -13.34375 -19.582031 L -13.734375 -20.046875 L -13.925781 -20.296875 L -14.234375 -20.609375 L -14.527344 -20.878906 L -14.644531 -20.996094 L -14.796875 -21.191406 C -14.894531 -21.285156 -14.953125 -21.324219 -15.011719 -21.304688 C -15.050781 -21.304688 -15.089844 -21.285156 -15.089844 -21.265625 C -15.089844 -21.207031 -14.757812 -20.820312 -14.566406 -20.667969 L -14.253906 -20.355469 C -14.0625 -20.183594 -13.847656 -19.929688 -13.558594 -19.542969 L -13.113281 -18.980469 C -12.957031 -18.808594 -12.707031 -18.457031 -12.589844 -18.304688 L -12.394531 -18.03125 C -12.28125 -17.898438 -11.738281 -17.121094 -11.523438 -16.792969 L -11.136719 -16.191406 C -11 -15.980469 -10.847656 -15.746094 -10.808594 -15.648438 L -10.671875 -15.398438 L -10.613281 -15.28125 L -10.441406 -14.914062 L -10.363281 -14.738281 C -10.324219 -14.679688 -10.285156 -14.625 -10.265625 -14.546875 L -10.207031 -14.449219 L -10.207031 -14.390625 L -10.148438 -14.273438 L -9.917969 -13.65625 L -9.566406 -12.667969 L -9.296875 -11.816406 L -9.296875 -11.738281 L -9.257812 -11.660156 C -9.238281 -11.621094 -9.257812 -11.582031 -9.257812 -11.523438 C -9.257812 -11.503906 -9.238281 -11.464844 -9.238281 -11.425781 C -9.375 -11.542969 -9.472656 -11.640625 -9.511719 -11.679688 C -9.566406 -11.738281 -9.625 -11.777344 -9.625 -11.777344 C -9.644531 -11.777344 -9.742188 -11.875 -9.878906 -11.988281 L -10.109375 -12.203125 L -12.085938 -13.964844 L -13.578125 -15.203125 C -13.636719 -15.261719 -13.714844 -15.320312 -13.714844 -15.320312 C -13.75 -15.320312 -13.964844 -15.648438 -14.003906 -15.765625 C -14.042969 -15.882812 -14.140625 -15.960938 -14.179688 -15.921875 C -14.234375 -15.882812 -14.234375 -15.726562 -14.214844 -15.628906 C -14.214844 -15.574219 -14.214844 -15.515625 -14.199219 -15.496094 L -14.179688 -15.378906 C -14.160156 -15.261719 -14.140625 -15.222656 -14.042969 -15.011719 C -14.003906 -14.933594 -13.964844 -14.816406 -13.964844 -14.757812 L -13.828125 -13.460938 L -13.695312 -12.472656 L -13.636719 -12.007812 C -13.636719 -11.890625 -13.617188 -11.757812 -13.617188 -11.71875 C -13.597656 -11.679688 -13.578125 -11.5625 -13.558594 -11.445312 L -13.074219 -8.191406 L -12.917969 -7.320312 L -12.820312 -6.875 L -12.804688 -6.683594 L -12.628906 -6.023438 C -12.550781 -5.695312 -12.472656 -5.382812 -12.453125 -5.347656 C -12.433594 -5.308594 -12.394531 -5.191406 -12.375 -5.074219 C -12.355469 -4.976562 -12.300781 -4.804688 -12.261719 -4.667969 L -12.125 -4.261719 L -12.046875 -4.046875 C -12.046875 -4.027344 -12.027344 -3.988281 -12.027344 -3.953125 C -12.027344 -3.894531 -11.988281 -3.796875 -11.875 -3.5625 L -11.816406 -3.429688 C -11.816406 -3.371094 -11.621094 -3.039062 -11.503906 -2.886719 L -11.390625 -2.691406 C -11.390625 -2.652344 -11.195312 -2.441406 -11.097656 -2.34375 C -11.039062 -2.285156 -11 -2.226562 -10.980469 -2.1875 C -10.960938 -2.167969 -10.90625 -2.128906 -10.847656 -2.109375 C -10.789062 -2.074219 -10.730469 -2.054688 -10.691406 -2.035156 C -10.59375 -1.957031 -9.957031 -1.898438 -9.917969 -1.976562 C -9.898438 -1.996094 -9.820312 -2.015625 -9.722656 -2.015625 C -9.550781 -2.054688 -9.335938 -2.128906 -9.238281 -2.226562 C -9.121094 -2.363281 -9.21875 -2.382812 -9.394531 -2.285156 C -9.511719 -2.226562 -9.683594 -2.167969 -9.839844 -2.148438 L -10.050781 -2.109375 C -10.246094 -2.074219 -10.574219 -2.109375 -10.710938 -2.207031 C -10.886719 -2.34375 -10.960938 -2.421875 -11.117188 -2.632812 L -11.3125 -2.847656 C -11.332031 -2.886719 -11.699219 -3.523438 -11.699219 -3.5625 C -11.699219 -3.601562 -11.71875 -3.640625 -11.71875 -3.660156 C -11.796875 -3.796875 -11.890625 -3.988281 -11.949219 -4.183594 L -12.085938 -4.589844 L -12.203125 -4.957031 L -12.261719 -5.191406 C -12.300781 -5.308594 -12.320312 -5.402344 -12.339844 -5.421875 C -12.355469 -5.441406 -12.394531 -5.558594 -12.414062 -5.675781 L -12.550781 -6.21875 C -12.648438 -6.644531 -12.667969 -6.777344 -12.6875 -6.835938 L -12.707031 -6.953125 L -12.804688 -7.398438 C -12.839844 -7.515625 -12.9375 -8.058594 -12.957031 -8.25 L -13.035156 -8.65625 L -13.132812 -9.414062 C -13.171875 -9.683594 -13.210938 -9.9375 -13.230469 -9.976562 C -13.25 -10.015625 -13.269531 -10.109375 -13.269531 -10.207031 C -13.269531 -10.304688 -13.285156 -10.421875 -13.285156 -10.460938 C -13.304688 -10.515625 -13.363281 -10.960938 -13.402344 -11.332031 L -13.441406 -11.484375 C -13.460938 -11.503906 -13.480469 -11.777344 -13.519531 -12.144531 L -13.597656 -12.804688 L -13.636719 -13.191406 C -13.714844 -13.617188 -13.769531 -14.488281 -13.75 -14.527344 C -13.808594 -14.679688 -13.847656 -14.855469 -13.886719 -15.03125 C -13.847656 -15.011719 -13.808594 -14.992188 -13.789062 -14.953125 C -13.769531 -14.953125 -13.734375 -14.953125 -13.695312 -14.914062 L -13.5 -14.757812 C -13.421875 -14.71875 -13.363281 -14.664062 -13.363281 -14.644531 C -13.34375 -14.625 -13.304688 -14.585938 -13.25 -14.546875 L -13.113281 -14.449219 L -12.820312 -14.214844 L -12.492188 -13.925781 L -12.085938 -13.578125 L -11.273438 -12.804688 L -10.226562 -11.875 L -9.898438 -11.601562 L -9.703125 -11.425781 C -9.683594 -11.390625 -9.472656 -11.195312 -9.238281 -11.019531 C -9.160156 -10.960938 -9.101562 -10.90625 -9.101562 -10.886719 C -9.101562 -10.867188 -9.082031 -10.867188 -9.046875 -10.847656 L -9.046875 -10.828125 C -9.046875 -10.828125 -9.007812 -10.808594 -8.96875 -10.808594 L -8.929688 -10.769531 C -8.890625 -10.710938 -8.753906 -10.59375 -8.617188 -10.480469 L -8.347656 -10.246094 L -7.84375 -9.839844 L -7.167969 -9.296875 L -6.953125 -9.101562 L -5.289062 -7.785156 C -5.113281 -7.632812 -4.9375 -7.496094 -4.765625 -7.359375 L -4.222656 -6.933594 L -3.988281 -6.757812 L -3.46875 -6.371094 C -2.789062 -5.867188 -2.710938 -5.828125 -2.5 -5.695312 L -2.285156 -5.539062 L -2.167969 -5.441406 L -2.054688 -5.382812 C -1.996094 -5.347656 -1.957031 -5.308594 -1.9375 -5.289062 C -1.917969 -5.269531 -1.878906 -5.25 -1.839844 -5.230469 C -1.800781 -5.210938 -1.550781 -5.054688 -1.257812 -4.863281 C -0.699219 -4.492188 -0.40625 -4.339844 -0.195312 -4.320312 C 0.0195312 -4.28125 0.175781 -4.453125 0.0390625 -4.570312 C -0.0195312 -4.609375 -0.0390625 -4.609375 -0.0585938 -4.570312 C -0.0585938 -4.550781 -0.0976562 -4.53125 -0.136719 -4.53125 C -0.234375 -4.550781 -0.601562 -4.765625 -0.910156 -4.976562 L -1.703125 -5.519531 C -1.996094 -5.695312 -2.265625 -5.90625 -2.324219 -5.945312 L -2.59375 -6.140625 L -3.523438 -6.816406 L -3.757812 -6.992188 L -4.472656 -7.554688 L -4.882812 -7.863281 L -5.480469 -8.367188 L -6.875 -9.453125 L -7.613281 -10.050781 L -8.117188 -10.460938 C -8.269531 -10.613281 -8.308594 -10.652344 -8.367188 -10.691406 L -8.445312 -10.769531 C -8.367188 -10.769531 -8.308594 -10.75 -8.289062 -10.730469 L -8.097656 -10.671875 L -6.546875 -10.246094 L -6.101562 -10.109375 C -6.042969 -10.070312 -5.191406 -9.859375 -5.054688 -9.820312 L -4.746094 -9.742188 L -4.300781 -9.644531 L -3.953125 -9.566406 L -3.757812 -9.53125 C -3.523438 -9.511719 -3.371094 -9.472656 -3.253906 -9.433594 C -3.195312 -9.414062 -3.078125 -9.394531 -3.023438 -9.394531 C -2.945312 -9.414062 -2.847656 -9.394531 -2.789062 -9.375 L -2.59375 -9.335938 L -2.402344 -9.316406 L -2.226562 -9.296875 L -1.898438 -9.277344 L -1.492188 -9.257812 C -0.753906 -9.199219 0.871094 -9.355469 1.316406 -9.53125 C 1.375 -9.550781 1.472656 -9.585938 1.492188 -9.585938 C 1.53125 -9.585938 1.644531 -9.605469 1.742188 -9.644531 L 2.109375 -9.761719 C 2.558594 -9.917969 2.964844 -10.167969 3.175781 -10.402344 C 3.351562 -10.59375 3.46875 -10.828125 3.640625 -11.3125 C 3.796875 -11.699219 3.796875 -11.777344 3.738281 -11.777344 Z M 3.738281 -11.777344 "/></g></g></g><g fill="#ffffff" fill-opacity="1"><g transform="translate(25.202092, 26.992535)"><g><path d="M -5.25 0.40625 L -5.25 0.289062 C -5.25 0.136719 -5.421875 -0.136719 -5.5 -0.234375 L -5.617188 -0.367188 L -5.636719 -0.386719 L -5.558594 -0.386719 C -5.382812 -0.347656 -5.171875 -0.40625 -5.25 -0.734375 L -5.25 -0.792969 C -5.25 -0.792969 -5.347656 -1.144531 -5.5 -1.511719 L -5.886719 -2.363281 L -6.003906 -2.59375 C -6.023438 -2.652344 -6.082031 -2.652344 -6.101562 -2.613281 L -6.121094 -2.574219 L -6.121094 -2.539062 L -6.101562 -2.5 C -5.734375 -1.644531 -5.5 -1.066406 -5.441406 -0.792969 C -5.441406 -0.792969 -5.363281 -0.601562 -5.460938 -0.582031 C -5.519531 -0.542969 -5.695312 -0.601562 -5.867188 -0.734375 C -6.082031 -0.910156 -6.332031 -1.164062 -6.390625 -1.007812 C -6.410156 -0.949219 -6.410156 -0.929688 -6.3125 -0.832031 L -6.257812 -0.792969 L -6.140625 -0.679688 L -6.082031 -0.640625 C -5.753906 -0.367188 -5.308594 0.214844 -5.460938 0.289062 C -5.539062 0.328125 -5.964844 -0.078125 -6.179688 -0.25 C -6.277344 -0.328125 -6.371094 -0.386719 -6.410156 -0.308594 C -6.449219 -0.269531 -6.429688 -0.25 -6.371094 -0.175781 C -6.21875 -0.0390625 -5.8125 0.386719 -5.636719 0.445312 C -5.558594 0.464844 -5.441406 0.503906 -5.347656 0.464844 Z M -5.25 0.40625 "/></g></g></g><g fill="#ffffff" fill-opacity="1"><g transform="translate(25.202092, 24.416751)"><g><path d="M 0.484375 6.46875 C 0.464844 6.277344 0.328125 5.90625 0.175781 5.617188 L 0.0195312 5.347656 L -0.0976562 5.152344 L -0.40625 4.707031 L -1.027344 3.894531 L -1.761719 2.984375 C -2.09375 2.574219 -2.769531 1.878906 -3.136719 1.570312 C -3.332031 1.414062 -3.488281 1.238281 -3.503906 1.21875 C -3.582031 1.164062 -3.796875 0.699219 -3.914062 0.328125 C -3.933594 0.25 -3.96875 0.195312 -3.988281 0.175781 C -4.007812 0.15625 -4.007812 0.136719 -4.007812 0.117188 C -3.988281 0.0976562 -4.007812 0.0585938 -4.027344 0.0195312 C -4.046875 0 -4.066406 -0.078125 -4.085938 -0.117188 C -4.085938 -0.175781 -4.105469 -0.234375 -4.125 -0.25 C -4.125 -0.269531 -4.164062 -0.347656 -4.183594 -0.464844 L -4.648438 -2.246094 C -4.667969 -2.324219 -4.707031 -2.5 -4.726562 -2.652344 C -4.765625 -2.886719 -4.765625 -2.90625 -4.707031 -2.867188 C -4.648438 -2.808594 -4.609375 -2.828125 -4.589844 -2.90625 C -4.570312 -2.964844 -4.570312 -3.003906 -4.628906 -3.117188 L -4.707031 -3.292969 C -4.707031 -3.3125 -4.726562 -3.332031 -4.765625 -3.371094 C -4.824219 -3.410156 -4.898438 -3.371094 -4.917969 -3.292969 C -4.9375 -3.195312 -4.898438 -2.90625 -4.863281 -2.691406 L -4.765625 -2.265625 L -4.492188 -1.179688 C -4.398438 -0.792969 -4.300781 -0.464844 -4.125 0.0585938 L -3.96875 0.503906 L -3.914062 0.753906 L -3.835938 0.96875 C -3.796875 1.046875 -5.09375 -0.117188 -5.269531 -0.25 L -5.597656 -0.503906 L -5.925781 -0.714844 C -6.003906 -0.773438 -6.082031 -0.8125 -6.101562 -0.8125 C -6.121094 -0.8125 -6.160156 -0.792969 -6.21875 -0.792969 C -6.371094 -0.792969 -6.429688 -0.621094 -6.351562 -0.367188 C -6.3125 -0.234375 -6.160156 0.0585938 -6.082031 0.175781 L -5.945312 0.347656 C -5.925781 0.367188 -5.925781 0.40625 -5.90625 0.445312 L -5.828125 0.523438 C -5.773438 0.601562 -5.636719 0.601562 -5.578125 0.542969 C -5.539062 0.503906 -5.519531 0.234375 -5.558594 0.175781 L -5.753906 -0.289062 C -5.792969 -0.386719 -4.433594 0.792969 -4.007812 1.125 C -3.640625 1.394531 -3.5625 1.550781 -3.523438 1.683594 C -3.503906 1.761719 -3.46875 1.878906 -3.429688 1.917969 C -3.410156 1.976562 -3.371094 2.035156 -3.371094 2.054688 C -3.390625 2.09375 -2.867188 3.15625 -2.730469 3.429688 C -2.652344 3.542969 -2.613281 3.640625 -2.613281 3.660156 C -2.613281 3.679688 -2.59375 3.699219 -2.59375 3.699219 C -2.574219 3.699219 -2.539062 3.757812 -2.519531 3.816406 C -2.5 3.875 -2.402344 4.027344 -2.304688 4.164062 L -2.128906 4.453125 C -2.074219 4.550781 -1.820312 4.917969 -1.609375 5.171875 C -1.316406 5.558594 -0.464844 6.351562 -0.347656 6.371094 C -0.328125 6.371094 -0.289062 6.390625 -0.269531 6.410156 L -0.269531 6.429688 C -0.214844 6.46875 -0.15625 6.507812 -0.117188 6.546875 C -0.0195312 6.566406 0.0585938 6.605469 0.136719 6.664062 L 0.269531 6.683594 C 0.445312 6.703125 0.503906 6.664062 0.484375 6.46875 Z M -5.714844 0.308594 C -5.714844 0.367188 -5.714844 0.367188 -5.773438 0.308594 C -5.847656 0.234375 -6.003906 0 -6.082031 -0.195312 C -6.160156 -0.347656 -6.179688 -0.542969 -6.121094 -0.542969 C -6.023438 -0.542969 -5.714844 0.117188 -5.714844 0.308594 Z M 0.328125 6.507812 C 0.308594 6.546875 0.175781 6.507812 0 6.429688 C -0.445312 6.179688 -0.699219 5.984375 -1.085938 5.597656 C -1.414062 5.25 -1.472656 5.171875 -1.800781 4.746094 C -1.957031 4.53125 -2.460938 3.738281 -2.460938 3.699219 L -2.558594 3.523438 C -2.613281 3.449219 -2.75 3.195312 -2.867188 2.964844 C -2.964844 2.75 -3.058594 2.558594 -3.078125 2.558594 C -3.097656 2.539062 -3.097656 2.519531 -3.097656 2.480469 L -3.117188 2.402344 C -3.136719 2.402344 -3.175781 2.304688 -3.214844 2.226562 L -3.3125 1.976562 C -3.390625 1.78125 -3.390625 1.761719 -3.351562 1.761719 C -3.332031 1.761719 -3.3125 1.78125 -3.3125 1.78125 C -3.3125 1.800781 -3.292969 1.820312 -3.292969 1.820312 C -3.195312 1.820312 -2.519531 2.519531 -1.742188 3.371094 L -1.238281 3.933594 C -1.164062 4.007812 -1.085938 4.105469 -1.046875 4.164062 L -0.929688 4.320312 C -0.8125 4.453125 -0.367188 5.09375 -0.367188 5.132812 C -0.367188 5.152344 -0.347656 5.171875 -0.328125 5.171875 C -0.308594 5.191406 -0.289062 5.210938 -0.289062 5.230469 C -0.289062 5.25 -0.234375 5.347656 -0.15625 5.460938 C 0.0585938 5.773438 0.15625 5.984375 0.25 6.238281 Z M 0.328125 6.507812 "/></g></g></g><g fill="#ffffff" fill-opacity="1"><g transform="translate(25.202092, 22.18957)"><g><path d="M -3.988281 0.851562 C -3.988281 0.832031 -4.085938 0.8125 -4.300781 0.773438 C -4.648438 0.734375 -4.898438 0.621094 -5.328125 0.328125 C -5.714844 0.078125 -6.683594 -0.679688 -6.683594 -0.714844 C -6.703125 -0.734375 -6.722656 -0.753906 -6.742188 -0.753906 C -6.777344 -0.792969 -6.796875 -0.832031 -6.816406 -0.871094 L -7.050781 -1.21875 C -7.148438 -1.394531 -7.167969 -1.433594 -7.28125 -1.589844 L -7.398438 -1.761719 C -7.398438 -1.78125 -7.515625 -1.976562 -7.613281 -2.09375 C -7.707031 -2.226562 -7.941406 -2.59375 -7.980469 -2.652344 L -8.117188 -2.847656 L -8.269531 -3.058594 L -8.464844 -3.3125 L -8.851562 -3.796875 C -9.066406 -4.085938 -9.664062 -4.765625 -9.839844 -4.804688 C -9.996094 -4.84375 -10.070312 -4.726562 -9.996094 -4.511719 C -9.9375 -4.300781 -9.761719 -4.007812 -9.644531 -3.855469 C -9.53125 -3.679688 -9.414062 -3.449219 -9.277344 -3.273438 C -8.910156 -2.769531 -8.503906 -2.246094 -8.058594 -1.742188 C -7.863281 -1.53125 -7.4375 -1.085938 -7.359375 -0.988281 L -6.972656 -0.601562 C -6.953125 -0.5625 -6.953125 -0.542969 -6.953125 -0.542969 C -6.972656 -0.523438 -6.953125 -0.503906 -6.953125 -0.503906 C -6.914062 -0.503906 -6.855469 -0.289062 -6.875 -0.25 C -6.894531 -0.234375 -6.875 -0.214844 -6.855469 -0.214844 C -6.816406 -0.214844 -6.722656 -0.308594 -6.722656 -0.347656 L -6.722656 -0.386719 C -6.664062 -0.328125 -6.625 -0.308594 -6.605469 -0.308594 L -6.507812 -0.234375 C -6.449219 -0.175781 -6.410156 -0.136719 -6.390625 -0.136719 C -6.371094 -0.136719 -6.351562 -0.136719 -6.351562 -0.117188 C -6.351562 -0.0976562 -6.277344 -0.0390625 -6.179688 0.0390625 L -5.984375 0.195312 C -5.984375 0.214844 -5.945312 0.214844 -5.925781 0.214844 C -5.886719 0.234375 -5.867188 0.25 -5.867188 0.269531 L -5.8125 0.328125 C -5.773438 0.328125 -5.773438 0.328125 -5.773438 0.347656 C -5.773438 0.367188 -5.753906 0.386719 -5.734375 0.386719 C -5.695312 0.386719 -5.675781 0.40625 -5.675781 0.425781 C -5.695312 0.425781 -5.675781 0.445312 -5.65625 0.445312 C -5.617188 0.445312 -5.441406 0.5625 -5.308594 0.660156 C -5.191406 0.734375 -5.132812 0.753906 -5.09375 0.773438 C -5.054688 0.773438 -5.015625 0.792969 -4.957031 0.8125 C -4.824219 0.910156 -4.472656 0.988281 -4.261719 0.949219 C -4.046875 0.929688 -4.007812 0.910156 -3.988281 0.851562 Z M -7.261719 -1.257812 C -7.242188 -1.199219 -7.261719 -1.238281 -7.4375 -1.394531 C -7.632812 -1.570312 -8.484375 -2.558594 -8.484375 -2.59375 L -9.046875 -3.292969 L -9.238281 -3.582031 L -9.375 -3.738281 L -9.453125 -3.855469 L -9.644531 -4.164062 L -9.722656 -4.300781 L -9.78125 -4.398438 L -9.800781 -4.433594 C -9.820312 -4.453125 -9.820312 -4.472656 -9.820312 -4.511719 C -9.839844 -4.53125 -9.820312 -4.550781 -9.78125 -4.550781 C -9.78125 -4.550781 -9.761719 -4.550781 -9.742188 -4.53125 L -9.703125 -4.492188 L -9.683594 -4.492188 L -9.644531 -4.433594 L -9.625 -4.417969 L -9.566406 -4.378906 L -9.511719 -4.320312 L -9.257812 -4.046875 L -8.96875 -3.679688 C -8.832031 -3.523438 -8.734375 -3.410156 -8.734375 -3.390625 L -8.65625 -3.273438 C -8.523438 -3.117188 -8.210938 -2.671875 -8.152344 -2.59375 C -8.117188 -2.519531 -7.960938 -2.285156 -7.902344 -2.207031 C -7.804688 -2.09375 -7.574219 -1.78125 -7.535156 -1.703125 L -7.476562 -1.628906 Z M -7.261719 -1.257812 "/></g></g></g><g fill="#ffffff" fill-opacity="1"><g transform="translate(25.202092, 20.485294)"><g><path d="M -5.289062 0.195312 C -5.328125 -0.0195312 -5.363281 -0.15625 -5.539062 -0.503906 L -5.925781 -1.375 L -6.042969 -1.628906 C -6.0625 -1.644531 -6.121094 -1.644531 -6.140625 -1.609375 L -6.160156 -1.589844 L -6.160156 -1.53125 L -6.140625 -1.492188 C -5.675781 -0.425781 -5.441406 0.214844 -5.480469 0.328125 C -5.5 0.367188 -5.519531 0.367188 -5.578125 0.308594 C -5.65625 0.269531 -5.675781 0.234375 -5.714844 0.0976562 C -5.773438 -0.117188 -5.867188 -0.308594 -6.101562 -0.640625 C -6.3125 -0.949219 -6.429688 -1.085938 -6.488281 -1.066406 C -6.605469 -1.027344 -6.585938 -0.851562 -6.46875 -0.542969 C -6.332031 -0.15625 -5.984375 0.289062 -5.675781 0.484375 C -5.519531 0.582031 -5.460938 0.601562 -5.382812 0.5625 C -5.25 0.542969 -5.25 0.503906 -5.289062 0.195312 Z M -5.925781 0.0390625 C -5.984375 0.0195312 -6.21875 -0.308594 -6.257812 -0.445312 C -6.3125 -0.5625 -6.390625 -0.753906 -6.351562 -0.753906 C -6.332031 -0.734375 -6.140625 -0.445312 -6.042969 -0.269531 C -5.925781 -0.0585938 -5.886719 0.078125 -5.925781 0.0390625 Z M -5.925781 0.0390625 "/></g></g></g><g fill="#ffffff" fill-opacity="1"><g transform="translate(25.202092, 18.935951)"><g><path d="M -5.210938 0.523438 C -5.269531 0.484375 -5.347656 0.367188 -5.402344 0.289062 L -5.558594 0.078125 C -5.636719 0 -5.695312 -0.117188 -5.886719 -0.523438 L -6.003906 -0.734375 C -6.042969 -0.832031 -6.042969 -0.851562 -5.984375 -0.929688 C -5.925781 -1.046875 -5.945312 -1.199219 -6.042969 -1.472656 L -6.199219 -1.78125 L -6.292969 -1.996094 C -6.3125 -2.035156 -6.332031 -2.128906 -6.332031 -2.167969 C -6.332031 -2.226562 -6.351562 -2.265625 -6.390625 -2.324219 C -6.507812 -2.441406 -6.566406 -2.460938 -6.625 -2.421875 C -6.703125 -2.382812 -6.703125 -2.324219 -6.585938 -2.167969 C -6.546875 -2.09375 -6.507812 -2.035156 -6.507812 -2.015625 C -6.507812 -1.996094 -6.488281 -1.9375 -6.449219 -1.878906 C -6.332031 -1.703125 -6.160156 -1.316406 -6.160156 -1.199219 C -6.160156 -1.164062 -6.179688 -1.144531 -6.238281 -1.125 C -6.351562 -1.105469 -6.371094 -1.046875 -6.3125 -0.929688 C -6.277344 -0.890625 -6.101562 -0.484375 -6.042969 -0.386719 L -5.964844 -0.214844 C -5.925781 -0.15625 -6.003906 -0.214844 -6.140625 -0.367188 C -6.3125 -0.5625 -6.429688 -0.601562 -6.46875 -0.484375 C -6.488281 -0.425781 -6.488281 -0.386719 -6.429688 -0.308594 C -6.332031 -0.136719 -5.886719 0.308594 -5.695312 0.464844 L -5.480469 0.640625 C -5.402344 0.699219 -5.328125 0.753906 -5.289062 0.773438 C -5.132812 0.792969 -5.09375 0.621094 -5.210938 0.523438 Z M -5.210938 0.523438 "/></g></g></g></svg>